<svg xmlns="http://www.w3.org/2000/svg" xmlns:xlink="http://www.w3.org/1999/xlink" version="1.1" x="0px" y="0px" viewBox="0 0 100 125" enable-background="new 0 0 100 100" xml:space="preserve"><path d="M50.858,97.146c-0.316,0-0.634-0.061-0.933-0.181c-7.904-3.179-22.428-11.078-30.903-28.26  c-5.208-10.549-4.953-22.153-4.6-38.216c0.101-4.56,0.204-9.275,0.204-14.525c0-1.092,0.708-2.058,1.75-2.385L50.108,2.97  c0.488-0.154,1.012-0.154,1.5,0l33.737,10.609c1.041,0.327,1.75,1.293,1.75,2.385c0,5.25,0.104,9.965,0.204,14.524  c0.353,16.063,0.608,27.668-4.602,38.218c-8.476,17.187-23.003,25.082-30.907,28.259C51.491,97.085,51.175,97.146,50.858,97.146z   M19.623,17.8c-0.021,4.613-0.116,8.935-0.201,12.8c-0.338,15.351-0.582,26.441,4.085,35.894  c7.418,15.039,19.948,22.306,27.352,25.447c7.405-3.14,19.937-10.403,27.356-25.446c4.667-9.453,4.424-20.545,4.086-35.896  c-0.085-3.865-0.18-8.186-0.201-12.799L50.858,7.976L19.623,17.8z"/><text x="0" y="115" fill="#000000" font-size="5px" font-weight="bold" font-family="'Helvetica Neue', Helvetica, Arial-Unicode, Arial, Sans-serif">Created by myladkings</text><text x="0" y="120" fill="#000000" font-size="5px" font-weight="bold" font-family="'Helvetica Neue', Helvetica, Arial-Unicode, Arial, Sans-serif">from the Noun Project</text></svg>